<?xml version="1.0" encoding="iso-8859-1"?>
<!-- Generator: Adobe Illustrator 19.0.0, SVG Export Plug-In . SVG Version: 6.00 Build 0)  -->
<svg version="1.1" id="Layer_1" xmlns="http://www.w3.org/2000/svg" xmlns:xlink="http://www.w3.org/1999/xlink" x="0px" y="0px"
	 viewBox="0 0 330 330" style="enable-background:new 0 0 330 330;" xml:space="preserve">
<g id="XMLID_10_">
	<path id="XMLID_11_" d="M165,0C74.019,0,0,74.019,0,165s74.019,165,165,165s165-74.019,165-165S255.981,0,165,0z M165,300
		c-74.439,0-135-60.561-135-135S90.561,30,165,30s135,60.561,135,135S239.439,300,165,300z"/>
	<path id="XMLID_14_" d="M101,153c5.27,0,10.42-2.141,14.14-5.86c3.72-3.72,5.86-8.88,5.86-14.14c0-5.271-2.141-10.42-5.86-14.141
		C111.42,115.14,106.27,113,101,113c-5.271,0-10.42,2.14-14.141,5.859C83.13,122.58,81,127.74,81,133c0,5.26,2.13,10.42,5.859,14.14
		C90.58,150.859,95.729,153,101,153z"/>
	<path id="XMLID_15_" d="M229,113c-5.26,0-10.42,2.14-14.141,5.859C211.14,122.58,209,127.729,209,133
		c0,5.26,2.14,10.42,5.859,14.14c3.721,3.72,8.881,5.86,14.141,5.86s10.42-2.141,14.14-5.86c3.73-3.72,5.86-8.88,5.86-14.14
		c0-5.26-2.13-10.42-5.86-14.141C239.42,115.14,234.26,113,229,113z"/>
	<path id="XMLID_16_" d="M229,180h-60h-68c-8.284,0-15,6.716-15,15s6.716,15,15,15h53v15c0,24.814,20.186,45,45,45s45-20.186,45-45
		v-30C244,186.716,237.284,180,229,180z M214,225c0,8.271-6.729,15-15,15s-15-6.729-15-15v-15h30V225z"/>
</g>
<g>
</g>
<g>
</g>
<g>
</g>
<g>
</g>
<g>
</g>
<g>
</g>
<g>
</g>
<g>
</g>
<g>
</g>
<g>
</g>
<g>
</g>
<g>
</g>
<g>
</g>
<g>
</g>
<g>
</g>
</svg>
